<svg width="28" height="40" viewBox="0 0 28 40" fill="none" xmlns="http://www.w3.org/2000/svg">
<path d="M20.3363 14.4762C20.3363 10.9975 17.4938 8.16748 14 8.16748C10.5063 8.16748 7.66376 10.9975 7.66376 14.4762C7.66376 17.955 10.5063 20.785 14 20.785C17.4938 20.785 20.3363 17.955 20.3363 14.4762Z" fill="#FF8787"/>
<path d="M13.9888 39.995L16.5569 36.6356C19.2375 33.0869 27.9831 20.9956 27.9831 14.385C27.9838 5.78063 22.3613 0 13.9919 0C5.6225 0 0 5.78063 0 14.3856C0 21.5044 10.27 35.1144 11.4381 36.6387L13.9888 39.995ZM5.15562 14.4738C5.15562 9.61688 9.11938 5.665 13.9919 5.665C18.8644 5.665 22.8281 9.61688 22.8281 14.4738C22.8281 19.3306 18.8644 23.2825 13.9919 23.2825C9.11938 23.2825 5.15562 19.3313 5.15562 14.4738Z" fill="#FF8787"/>
</svg>
