<svg width="39" height="39" viewBox="0 0 39 39" fill="none" xmlns="http://www.w3.org/2000/svg">
<g clip-path="url(#clip0_136_113)">
<path d="M19.5 0C8.74731 0 0 8.74732 0 19.5C0 23.1679 1.01953 26.729 2.95236 29.8213C2.18263 32.5203 0.791006 37.6245 0.776381 37.678C0.704606 37.9417 0.7815 38.2236 0.978506 38.414C1.17553 38.6038 1.46046 38.6711 1.72041 38.5921L9.44968 36.2139C12.4775 38.0376 15.9448 39 19.5 39C30.2527 39 39 30.2527 39 19.5C39 8.74732 30.2527 0 19.5 0ZM19.5 37.5C16.111 37.5 12.8093 36.553 9.95143 34.7614C9.83053 34.686 9.69216 34.6472 9.55296 34.6472C9.47901 34.6472 9.40431 34.6582 9.33253 34.6801L2.58321 36.7574C3.07911 34.9475 3.96975 31.7102 4.48678 29.9099C4.54686 29.7012 4.51318 29.4764 4.39528 29.294C2.50125 26.3797 1.5 22.9929 1.5 19.5C1.5 9.57495 9.57493 1.5 19.5 1.5C29.425 1.5 37.5 9.57495 37.5 19.5C37.5 29.4251 29.425 37.5 19.5 37.5Z" fill="#FF8787"/>
<path d="M32.239 24.0945C30.8547 23.3255 29.6755 22.5549 28.8149 21.9924C28.1579 21.5633 27.6833 21.2535 27.3355 21.0792C26.3628 20.5935 25.6252 20.937 25.3447 21.2198C25.3096 21.2549 25.2781 21.293 25.251 21.334C24.241 22.8494 22.9211 24.2996 22.5352 24.3772C22.0891 24.3077 20.0002 23.1204 17.9238 21.3912C15.8042 19.6245 14.4712 17.9334 14.2749 16.782C15.635 15.3824 16.125 14.502 16.125 13.5C16.125 12.4673 13.7161 8.15553 13.2803 7.71978C12.843 7.28321 11.8586 7.21511 10.3528 7.51466C10.2078 7.54398 10.0744 7.61501 9.96975 7.71978C9.78733 7.90211 5.52321 12.2498 7.54978 17.5196C9.77413 23.3028 15.4841 30.0249 22.7637 31.117C23.5906 31.2408 24.3662 31.3023 25.0928 31.3023C29.3753 31.3023 31.9028 29.1475 32.6147 24.8731C32.6668 24.5604 32.5166 24.2484 32.239 24.0945ZM22.9863 29.6331C15.2886 28.4788 10.4392 20.8521 8.95018 16.9805C7.47291 13.1404 10.1975 9.71711 10.8816 8.94288C11.4383 8.84846 12.0235 8.80886 12.268 8.84696C12.7786 9.55743 14.5474 12.8987 14.625 13.5C14.625 13.8941 14.4968 14.442 12.9697 15.9698C12.8291 16.1104 12.75 16.3008 12.75 16.5C12.75 20.4273 21.0329 25.875 22.5 25.875C23.7759 25.875 25.4392 23.7305 26.3862 22.3338C26.4412 22.3359 26.5334 22.355 26.6645 22.4209C26.9348 22.5564 27.4028 22.8618 27.9946 23.2485C28.7761 23.7591 29.814 24.4373 31.0393 25.1397C30.4827 27.8174 28.9277 30.5259 22.9863 29.6331Z" fill="#FF8787"/>
</g>
<defs>
<clipPath id="clip0_136_113">
<rect width="39" height="39" fill="white"/>
</clipPath>
</defs>
</svg>
