<svg width="56" height="40" viewBox="0 0 56 40" fill="none" xmlns="http://www.w3.org/2000/svg">
<path fill-rule="evenodd" clip-rule="evenodd" d="M55.44 8.72306C55.44 8.72306 54.8923 4.83675 53.214 3.12568C51.0843 0.878683 48.6973 0.868183 47.6035 0.737808C39.767 0.16687 28.0122 0.16687 28.0122 0.16687H27.9878C27.9878 0.16687 16.233 0.16687 8.3965 0.737808C7.301 0.868183 4.91575 0.878683 2.78425 3.12568C1.106 4.83718 0.56 8.72306 0.56 8.72306C0.56 8.72306 0 13.2879 0 17.8506V22.1298C0 26.6942 0.56 31.2574 0.56 31.2574C0.56 31.2574 1.106 35.1437 2.78425 36.8547C4.91575 39.1017 7.714 39.0313 8.96 39.2658C13.44 39.6994 28 39.8332 28 39.8332C28 39.8332 39.767 39.8157 47.6035 39.2448C48.6973 39.1127 51.0843 39.1022 53.214 36.8552C54.8923 35.1437 55.44 31.2578 55.44 31.2578C55.44 31.2578 56 26.6947 56 22.1298V17.8506C56 13.2879 55.44 8.72306 55.44 8.72306ZM22.218 27.3151L22.2162 11.4692L37.3467 19.4195L22.218 27.3151Z" fill="#FF8787"/>
</svg>
